<svg xmlns="http://www.w3.org/2000/svg" version="1.1" xmlns:xlink="http://www.w3.org/1999/xlink" xmlns:svgjs="http://svgjs.dev/svgjs" width="1000" height="1000" viewBox="0 0 1000 1000"><rect width="1000" height="1000" fill="#046380"></rect><g transform="matrix(0.7,0,0,0.7,149.57575757575756,315.3283597624425)"><svg viewBox="0 0 396 209" data-background-color="#046380" preserveAspectRatio="xMidYMid meet" height="527" width="1000" xmlns="http://www.w3.org/2000/svg" xmlns:xlink="http://www.w3.org/1999/xlink"><g id="tight-bounds" transform="matrix(1,0,0,1,0.2400000000000091,0.1255712025251512)"><svg viewBox="0 0 395.52 208.74885349743505" height="208.74885349743505" width="395.52"><g><svg viewBox="0 0 745.462048500277 393.4424250361098" height="208.74885349743505" width="395.52"><g transform="matrix(1,0,0,1,349.942048500277,125.54855965334619)"><svg viewBox="0 0 395.52 142.34530572941742" height="142.34530572941742" width="395.52"><g id="textblocktransform"><svg viewBox="0 0 395.52 142.34530572941742" height="142.34530572941742" width="395.52" id="textblock"><g><svg viewBox="0 0 395.52 142.34530572941742" height="142.34530572941742" width="395.52"><g transform="matrix(1,0,0,1,0,0)"><svg width="395.52" viewBox="-3.6600000858306885 -33.84000015258789 101.4000015258789 36.5" height="142.34530572941742" data-palette-color="#ffffff"><path d="M21.95-33.35L21.95-33.35Q21.7-32.71 21.2-31.25 20.7-29.79 20.02-27.76 19.34-25.73 18.52-23.28 17.7-20.83 16.83-18.2 15.97-15.58 15.1-12.93 14.23-10.28 13.44-7.86 12.65-5.44 11.99-3.42 11.33-1.39 10.89 0L10.89 0Q10.6 0.05 10.25 0.07L10.25 0.07Q9.67 0.15 8.64 0.15L8.64 0.15Q8.15 0.15 7.6 0.11 7.06 0.07 6.49 0L6.49 0 6.35-0.24Q6.64-0.78 7.24-2.37 7.84-3.96 8.63-6.18 9.42-8.4 10.35-11.07 11.28-13.75 12.21-16.5L12.21-16.5 6.25-16.41Q5.44-13.99 4.65-11.6 3.86-9.2 3.16-7.04 2.47-4.88 1.88-3.06 1.29-1.25 0.9 0L0.9 0Q0.61 0.05 0.27 0.07L0.27 0.07Q-0.02 0.12-0.44 0.13-0.85 0.15-1.34 0.15L-1.34 0.15Q-2.39 0.15-3.49 0L-3.49 0-3.66-0.24Q-3.37-0.78-2.78-2.33-2.2-3.88-1.4-6.07-0.61-8.25 0.29-10.89 1.2-13.53 2.11-16.25 3.03-18.97 3.88-21.58 4.74-24.19 5.42-26.34 6.1-28.49 6.53-29.96 6.96-31.42 7.01-31.86L7.01-31.86Q7.01-32.06 6.93-32.21 6.86-32.37 6.74-32.45L6.74-32.45 6.74-32.74Q7.4-32.93 7.96-33.07 8.52-33.2 9.09-33.29 9.67-33.37 10.33-33.42 10.99-33.47 11.84-33.5L11.84-33.5 11.94-33.35Q11.69-32.71 11.18-31.21 10.67-29.71 9.96-27.62 9.25-25.54 8.41-23.02 7.57-20.51 6.69-17.85L6.69-17.85 12.7-17.94Q13.53-20.43 14.27-22.78 15.01-25.12 15.6-27 16.19-28.88 16.56-30.18 16.94-31.47 16.99-31.86L16.99-31.86Q16.99-32.28 16.75-32.45L16.75-32.45 16.75-32.74Q17.41-32.93 17.97-33.07 18.53-33.2 19.1-33.29 19.68-33.37 20.34-33.42 21-33.47 21.85-33.5L21.85-33.5 21.95-33.35ZM19.11 0.34L19.11 0.34Q18.58 0.34 18.04-0.01 17.5-0.37 17.06-0.92 16.62-1.46 16.34-2.12 16.06-2.78 16.06-3.39L16.06-3.39Q16.06-4.13 16.25-5.05 16.43-5.98 16.71-6.98 16.99-7.98 17.33-8.96 17.67-9.94 17.98-10.75 18.28-11.57 18.52-12.16 18.75-12.74 18.85-12.94L18.85-12.94Q19.33-14.11 20.37-15.21 21.41-16.31 22.64-17.16 23.87-18.02 25.13-18.53 26.39-19.04 27.34-19.04L27.34-19.04Q28.12-19.04 28.61-18.19 29.1-17.33 29.1-16.04L29.1-16.04Q29.1-15.38 28.79-14.75 28.49-14.11 28.01-13.55 27.54-12.99 26.99-12.5 26.44-12.01 25.95-11.65L25.95-11.65 20.85-7.74Q20.41-6.08 20.13-4.8 19.85-3.52 19.85-3.05L19.85-3.05Q19.85-2.34 20.04-1.98 20.24-1.61 20.85-1.61L20.85-1.61Q22.14-1.61 23.53-2.89 24.92-4.17 26.24-7.01L26.24-7.01 26.95-6.54Q26.29-5 25.42-3.74 24.56-2.47 23.56-1.56 22.56-0.66 21.42-0.16 20.29 0.34 19.11 0.34ZM25.56-17.65L25.56-17.65Q25.07-17.65 24.51-16.89 23.95-16.14 23.39-14.93 22.82-13.72 22.29-12.19 21.75-10.67 21.31-9.16L21.31-9.16 25.46-12.45Q25.75-13.5 26-14.51 26.24-15.53 26.24-16.04L26.24-16.04Q26.24-16.31 26.21-16.59 26.17-16.87 26.1-17.11 26.02-17.36 25.89-17.5 25.75-17.65 25.56-17.65ZM30.34 0L30.34 0Q30.07 0.05 29.76 0.07L29.76 0.07Q29.19 0.15 28.29 0.15L28.29 0.15Q27.88 0.15 27.41 0.11 26.95 0.07 26.48 0L26.48 0 26.34-0.24Q26.46-0.49 26.77-1.25 27.07-2 27.47-3.08 27.88-4.15 28.34-5.47 28.8-6.79 29.28-8.15 29.76-9.52 30.18-10.84 30.61-12.16 30.95-13.26 31.29-14.36 31.49-15.12 31.68-15.89 31.68-16.16L31.68-16.16Q31.68-16.43 31.64-16.58 31.59-16.72 31.54-16.85L31.54-16.85Q31.46-16.94 31.39-17.04L31.39-17.04 31.39-17.41Q31.95-17.75 32.7-18.02 33.44-18.29 34.15-18.46L34.15-18.46Q34.96-18.65 35.83-18.8L35.83-18.8 35.96-18.65Q35.96-18.43 35.85-17.97 35.74-17.5 35.57-16.93 35.4-16.36 35.2-15.75 35-15.14 34.82-14.6 34.64-14.06 34.5-13.67 34.37-13.28 34.35-13.16L34.35-13.16Q33.81-11.72 33.3-10.13 32.78-8.54 32.29-6.96L32.29-6.96Q32.86-8.35 33.48-9.78 34.1-11.21 34.74-12.54 35.37-13.87 36.04-15.05 36.71-16.24 37.35-17.1 37.98-17.97 38.61-18.48 39.23-18.99 39.79-18.99L39.79-18.99Q39.96-18.99 40.3-18.86 40.64-18.73 41.01-18.48 41.38-18.24 41.73-17.88 42.08-17.53 42.3-17.09L42.3-17.09Q42.4-16.94 42.13-16.27 41.87-15.6 41.25-14.69 40.64-13.77 39.72-12.76 38.79-11.74 37.54-10.89L37.54-10.89 36.93-11.21Q37.32-12.01 37.56-12.59 37.79-13.16 37.91-13.59 38.03-14.01 38.07-14.33 38.11-14.65 38.11-14.94L38.11-14.94Q38.11-15.31 37.89-15.31L37.89-15.31Q37.54-15.31 37.02-14.64 36.49-13.96 35.87-12.82 35.25-11.67 34.55-10.14 33.86-8.62 33.14-6.92 32.42-5.22 31.7-3.44 30.98-1.66 30.34 0ZM41.89-12.7L41.89-12.7Q42.47-14.11 43.33-15.25 44.18-16.38 45.21-17.18 46.23-17.97 47.38-18.38 48.53-18.8 49.7-18.8L49.7-18.8Q50.21-18.8 50.83-18.52 51.46-18.24 51.99-17.75 52.53-17.26 52.89-16.56 53.24-15.87 53.24-15.04L53.24-15.04Q53.24-14.33 53.07-13.42 52.9-12.5 52.63-11.54 52.36-10.57 52.04-9.62 51.73-8.67 51.43-7.87 51.14-7.08 50.91-6.52 50.68-5.96 50.58-5.76L50.58-5.76Q49.99-4.32 49.14-3.2 48.28-2.08 47.26-1.28 46.23-0.49 45.1-0.07 43.96 0.34 42.79 0.34L42.79 0.34Q42.28 0.34 41.66 0.07 41.03-0.2 40.5-0.7 39.96-1.2 39.6-1.88 39.25-2.56 39.25-3.39L39.25-3.39Q39.25-4.13 39.42-5.04 39.59-5.96 39.86-6.92 40.13-7.89 40.45-8.84 40.76-9.79 41.06-10.57 41.35-11.35 41.57-11.93 41.79-12.5 41.89-12.7ZM48.65-17.46L48.65-17.46Q48.09-17.46 47.44-16.47 46.79-15.48 46.15-13.94 45.5-12.4 44.9-10.58 44.3-8.76 43.85-7.08 43.4-5.4 43.12-4.11 42.84-2.83 42.84-2.39L42.84-2.39Q42.84-1.68 43.11-1.37 43.38-1.05 43.84-1.05L43.84-1.05Q44.26-1.05 44.72-1.62 45.18-2.2 45.67-3.15 46.16-4.1 46.64-5.35 47.11-6.59 47.55-7.92 47.99-9.25 48.37-10.57 48.75-11.89 49.03-13.01 49.31-14.14 49.47-14.95 49.63-15.77 49.63-16.09L49.63-16.09Q49.63-16.8 49.36-17.13 49.09-17.46 48.65-17.46ZM72.04-33.59L72.18-33.35Q71.94-32.71 71.44-31.25 70.94-29.79 70.25-27.76 69.57-25.73 68.75-23.28 67.93-20.83 67.07-18.2 66.2-15.58 65.33-12.93 64.47-10.28 63.69-7.86 62.91-5.44 62.25-3.42 61.59-1.39 61.15 0L61.15 0Q60.85 0.05 60.54 0.07L60.54 0.07Q59.98 0.15 59.05 0.15L59.05 0.15Q58 0.15 56.73 0L56.73 0 56.58-0.24Q56.87-0.78 57.46-2.33 58.05-3.88 58.84-6.07 59.63-8.25 60.54-10.89 61.44-13.53 62.36-16.25 63.27-18.97 64.13-21.58 64.98-24.19 65.65-26.34 66.32-28.49 66.75-29.96 67.18-31.42 67.23-31.86L67.23-31.86Q67.23-32.13 67.08-32.35L67.08-32.35Q66.15-32.28 65.27-32.13 64.39-31.98 63.69-31.74L63.69-31.74Q63.37-31.62 63-31.34 62.64-31.05 62.32-30.64 62-30.22 61.79-29.72 61.59-29.22 61.59-28.71L61.59-28.71Q61.59-28.39 61.64-27.92 61.68-27.44 61.83-26.95L61.83-26.95 61.54-26.66Q60.29-27.56 59.56-28.55 58.83-29.54 58.83-30.4L58.83-30.4Q58.83-30.88 59.16-31.47 59.49-32.06 59.98-32.56 60.46-33.06 61.03-33.4 61.59-33.74 62.03-33.74L62.03-33.74Q63.54-33.74 65.35-33.62 67.15-33.5 69.18-33.5L69.18-33.5Q69.62-33.5 69.96-33.5 70.3-33.5 70.62-33.51 70.94-33.52 71.27-33.53 71.6-33.54 72.04-33.59L72.04-33.59ZM76.43-29.44L76.43-29.44Q76.43-29.71 76.34-30.07 76.26-30.42 76.11-30.74 75.97-31.05 75.75-31.27 75.53-31.49 75.23-31.49L75.23-31.49Q74.77-31.49 74.33-31.35L74.33-31.35 74.14-31.74Q74.79-32.2 75.51-32.59 76.24-32.98 76.87-33.26 77.5-33.54 77.97-33.69 78.43-33.84 78.58-33.84L78.58-33.84Q79.02-33.84 79.38-33.53 79.75-33.23 80.01-32.82 80.26-32.42 80.4-32.02 80.53-31.62 80.53-31.4L80.53-31.4Q80.53-29.86 79.69-28.3 78.85-26.73 77.53-25.23 76.21-23.73 74.6-22.33 72.99-20.92 71.43-19.7L71.43-19.7Q71.55-18.24 71.71-16.39 71.87-14.55 72.11-12.59 72.35-10.62 72.66-8.64 72.96-6.67 73.38-4.96L73.38-4.96Q73.84-2.86 74.29-1.6 74.75-0.34 75.22 0.39 75.7 1.12 76.25 1.46 76.8 1.81 77.48 2.1L77.48 2.1 77.19 2.66Q76.26 2.61 75.16 2.31 74.06 2 73 1.28 71.94 0.56 71.05-0.63 70.16-1.83 69.64-3.66L69.64-3.66Q69.2-5.27 68.89-7.08 68.57-8.89 68.34-10.78 68.11-12.67 67.91-14.58 67.71-16.48 67.49-18.31L67.49-18.31Q70.13-20.17 71.85-21.64 73.57-23.12 74.6-24.41 75.62-25.71 76.03-26.92 76.43-28.13 76.43-29.44ZM87.44-27.39L87.44-27.39Q87.95-27.39 88.37-26.97 88.78-26.54 88.78-25.76L88.78-25.76Q88.78-25 88.45-24.3 88.12-23.61 87.63-23.07 87.15-22.53 86.55-22.22 85.95-21.9 85.44-21.9L85.44-21.9Q85.22-21.9 84.96-21.96 84.7-22.02 84.48-22.2 84.26-22.39 84.12-22.71 83.97-23.02 83.97-23.51L83.97-23.51Q83.97-24.22 84.28-24.91 84.58-25.61 85.08-26.16 85.58-26.71 86.19-27.05 86.8-27.39 87.44-27.39ZM86.14-18.8L86.24-18.65Q85.97-18.29 85.6-17.48 85.22-16.67 84.78-15.56 84.34-14.45 83.87-13.16 83.41-11.87 82.96-10.53 82.51-9.2 82.12-7.95 81.73-6.69 81.42-5.65 81.12-4.61 80.94-3.89 80.77-3.17 80.77-2.95L80.77-2.95Q80.77-2.49 81.14-2.49L81.14-2.49Q81.43-2.51 81.97-2.76 82.51-3 83.2-3.49 83.9-3.98 84.73-4.74 85.56-5.49 86.44-6.54L86.44-6.54 86.97-6.05Q85.9-4.69 84.64-3.53 83.39-2.37 82.15-1.5 80.92-0.63 79.82-0.15 78.72 0.34 77.99 0.34L77.99 0.34Q77.8 0.34 77.62 0.21 77.45 0.07 77.33-0.05L77.33-0.05Q76.92-0.54 76.88-0.9 76.84-1.27 76.84-1.66L76.84-1.66Q76.84-2.22 77.15-3.54 77.45-4.86 77.92-6.53 78.38-8.2 78.95-10.03 79.53-11.87 80.08-13.43 80.63-14.99 81.08-16.09 81.53-17.19 81.77-17.41L81.77-17.41Q82.26-17.85 83-18.13 83.73-18.41 84.44-18.55L84.44-18.55Q85.24-18.73 86.14-18.8L86.14-18.8ZM97.74-27.39L97.74-27.39Q97.45-26.71 97.07-25.76 96.69-24.8 96.25-23.68 95.81-22.56 95.33-21.29 94.86-20.02 94.35-18.7L94.35-18.7 97.74-18.8 97.3-17.65 93.93-17.6Q93.1-15.38 92.32-13.17 91.54-10.96 90.92-9.06 90.29-7.15 89.91-5.71 89.54-4.27 89.54-3.59L89.54-3.59Q89.54-3.17 89.63-3.02 89.73-2.86 90.05-2.86L90.05-2.86Q90.24-2.86 90.87-3.21 91.49-3.56 92.31-4.22 93.12-4.88 94.02-5.81 94.91-6.74 95.69-7.86L95.69-7.86 96.23-7.35Q95.37-6.1 94.16-4.75 92.95-3.39 91.68-2.26 90.41-1.12 89.21-0.39 88 0.34 87.14 0.34L87.14 0.34Q87.02 0.34 86.68 0.23 86.34 0.12 86.14-0.1L86.14-0.1Q86-0.29 85.81-0.93 85.63-1.56 85.63-2.59L85.63-2.59Q85.63-3.3 86.01-4.86 86.39-6.42 87.01-8.47 87.63-10.52 88.42-12.88 89.22-15.23 90.05-17.55L90.05-17.55 87.24-17.5 87.63-18.55 90.39-18.6 93.44-26.86Q93.91-27.03 94.61-27.15 95.32-27.27 96.01-27.37L96.01-27.37Q96.81-27.47 97.64-27.54L97.64-27.54Q97.64-27.49 97.69-27.47 97.74-27.44 97.74-27.39Z" opacity="1" transform="matrix(1,0,0,1,0,0)" fill="#ffffff" class="wordmark-text-0" data-fill-palette-color="primary" id="text-0"></path></svg></g></svg></g></svg></g></svg></g><g><svg viewBox="0 0 316.337738104899 393.4424250361098" height="393.4424250361098" width="316.337738104899"><g><svg xmlns="http://www.w3.org/2000/svg" xmlns:xlink="http://www.w3.org/1999/xlink" version="1.1" x="8" y="0" viewBox="23 14.633000373840332 54 70.73999786376953" enable-background="new 0 0 100 100" xml:space="preserve" height="393.4424250361098" width="300.337738104899" class="icon-icon-0" data-fill-palette-color="accent" id="icon-0"><g fill="#ffffff" data-fill-palette-color="accent"><path d="M23 15.983v-0.1c0 0.061 0.01 0.11 0.01 0.17C23 16.033 23 16.013 23 15.983z" fill="#ffffff" data-fill-palette-color="accent"></path><path d="M23.1 15.393c-0.06 0.15-0.1 0.32-0.1 0.49 0-0.08 0.01-0.16 0.02-0.24 0-0.02 0.01-0.04 0.01-0.06 0.01-0.06 0.03-0.12 0.06-0.18C23.1 15.403 23.1 15.393 23.1 15.393z" fill="#ffffff" data-fill-palette-color="accent"></path><path d="M23.35 15.013c0.01-0.01 0.01-0.01 0.02-0.01-0.06 0.05-0.11 0.11-0.16 0.18 0.03-0.05 0.07-0.1 0.11-0.14C23.33 15.033 23.33 15.023 23.35 15.013z" fill="#ffffff" data-fill-palette-color="accent"></path><path d="M23.41 14.953c0.04-0.04 0.09-0.07 0.13-0.1-0.06 0.04-0.12 0.09-0.17 0.15 0.01-0.01 0.01-0.01 0.01-0.02l0.01-0.01C23.4 14.963 23.4 14.953 23.41 14.953z" fill="#ffffff" data-fill-palette-color="accent"></path><path d="M24.5 14.663c0.08 0.01 0.16 0.03 0.23 0.07-0.31-0.11-0.66-0.11-0.96 0 0.07-0.03 0.14-0.05 0.21-0.07 0 0 0.01 0 0.02 0 0.06-0.02 0.12-0.03 0.18-0.03h0.07C24.34 14.633 24.42 14.643 24.5 14.663z" fill="#ffffff" data-fill-palette-color="accent"></path><path d="M25.08 14.953c0.02 0.01 0.04 0.02 0.05 0.04v0.01C25.12 14.983 25.1 14.973 25.08 14.953z" fill="#ffffff" data-fill-palette-color="accent"></path><path d="M74.92 14.953c-0.02 0.02-0.04 0.03-0.05 0.05v-0.01C74.88 14.973 74.9 14.963 74.92 14.953z" fill="#ffffff" data-fill-palette-color="accent"></path><path d="M76.23 14.733c-0.3-0.11-0.65-0.11-0.96 0 0.07-0.04 0.15-0.06 0.23-0.07 0.08-0.02 0.16-0.03 0.25-0.03h0.07c0.06 0 0.12 0.01 0.18 0.03 0.01 0 0.02 0 0.02 0C76.09 14.683 76.16 14.703 76.23 14.733z" fill="#ffffff" data-fill-palette-color="accent"></path><path d="M76.68 15.043c-0.04-0.04-0.08-0.08-0.13-0.12 0.03 0.021 0.06 0.04 0.09 0.07 0.01 0.01 0.01 0.01 0.02 0.02C76.67 15.023 76.68 15.033 76.68 15.043z" fill="#ffffff" data-fill-palette-color="accent"></path><path d="M76.97 15.573v0.04c0-0.01 0-0.021-0.01-0.03-0.02-0.07-0.04-0.13-0.06-0.19 0.01 0.01 0.01 0.03 0.02 0.04C76.94 15.473 76.96 15.523 76.97 15.573z" fill="#ffffff" data-fill-palette-color="accent"></path><path d="M76.98 15.643v0.05c0-0.03-0.01-0.061-0.01-0.08C76.97 15.623 76.98 15.633 76.98 15.643z" fill="#ffffff" data-fill-palette-color="accent"></path><path d="M76.99 15.773c0-0.03 0-0.05-0.01-0.08 0-0.03-0.01-0.061-0.01-0.08 0-0.01 0-0.021-0.01-0.03-0.02-0.07-0.04-0.13-0.06-0.19v-0.01c-0.03-0.07-0.07-0.13-0.11-0.2-0.03-0.05-0.07-0.1-0.11-0.14-0.04-0.04-0.08-0.08-0.13-0.12-0.02-0.02-0.04-0.03-0.06-0.04-0.08-0.07-0.16-0.11-0.25-0.15 0 0 0 0-0.01 0-0.3-0.11-0.65-0.11-0.96 0 0 0.01 0 0.01-0.01 0l-1.81 0.61c-8.57 2.94-13.28 4.55-23.43 4.55-10.18 0-14.93-1.62-23.55-4.57l-1.729-0.59c-0.01 0.01-0.01 0.01-0.01 0-0.31-0.11-0.66-0.11-0.96 0-0.01 0-0.01 0-0.01 0-0.07 0.03-0.13 0.07-0.2 0.11-0.01 0-0.01 0-0.02 0.01-0.06 0.04-0.12 0.09-0.17 0.15-0.06 0.05-0.11 0.11-0.16 0.18s-0.08 0.14-0.11 0.21c-0.06 0.15-0.1 0.32-0.1 0.49 0 0.061 0.01 0.11 0.01 0.17C23 16.033 23 16.013 23 15.983l0.01 51.21c0 0.42 0.21 0.819 0.56 1.05l25.76 16.92c0.21 0.14 0.45 0.21 0.69 0.21s0.48-0.07 0.69-0.21l25.72-16.92c0.35-0.24 0.56-0.63 0.56-1.05L77 15.973v-0.09C77 15.843 77 15.813 76.99 15.773zM25.13 14.993v0.01c-0.01-0.02-0.03-0.03-0.05-0.05C25.1 14.963 25.12 14.973 25.13 14.993zM74.49 66.523l-24.47 16.1-24.51-16.1-0.01-48.89 0.16 0.05c8.88 3.04 13.76 4.71 24.36 4.71 10.56 0 15.42-1.66 24.24-4.68l0.24-0.08L74.49 66.523zM74.87 15.003v-0.01c0.01-0.021 0.03-0.03 0.05-0.04C74.9 14.973 74.88 14.983 74.87 15.003z" fill="#ffffff" data-fill-palette-color="accent"></path><path d="M23 15.883c0 0.061 0.01 0.11 0.01 0.17C23 16.033 23 16.013 23 15.983V15.883z" fill="#ffffff" data-fill-palette-color="accent"></path><path d="M24.5 14.663c0.08 0.01 0.16 0.03 0.23 0.07-0.31-0.11-0.66-0.11-0.96 0 0.07-0.03 0.14-0.05 0.21-0.07 0 0 0.01 0 0.02 0 0.08-0.02 0.16-0.03 0.25-0.03S24.42 14.643 24.5 14.663z" fill="#ffffff" data-fill-palette-color="accent"></path><path d="M76.23 14.733c-0.3-0.11-0.65-0.11-0.96 0 0.07-0.04 0.15-0.06 0.23-0.07 0.08-0.02 0.16-0.03 0.25-0.03s0.17 0.01 0.25 0.03c0.01 0 0.02 0 0.02 0C76.09 14.683 76.16 14.703 76.23 14.733z" fill="#ffffff" data-fill-palette-color="accent"></path><path d="M74.92 14.953c-0.02 0.02-0.04 0.03-0.05 0.05v-0.01C74.88 14.973 74.9 14.963 74.92 14.953z" fill="#ffffff" data-fill-palette-color="accent"></path><path d="M76.68 15.043c-0.04-0.04-0.08-0.08-0.13-0.12 0.03 0.021 0.06 0.04 0.09 0.07 0.01 0.01 0.01 0.01 0.02 0.02C76.67 15.023 76.68 15.033 76.68 15.043z" fill="#ffffff" data-fill-palette-color="accent"></path><path d="M76.96 15.583c-0.02-0.07-0.04-0.13-0.06-0.19 0.01 0.01 0.01 0.03 0.02 0.04C76.93 15.483 76.95 15.533 76.96 15.583z" fill="#ffffff" data-fill-palette-color="accent"></path><path d="M76.98 15.643v0.05c0-0.03-0.01-0.061-0.01-0.08C76.97 15.623 76.98 15.633 76.98 15.643z" fill="#ffffff" data-fill-palette-color="accent"></path><path d="M23.09 15.403c0.01 0 0.01-0.01 0.01-0.01-0.06 0.15-0.1 0.32-0.1 0.49 0-0.08 0.01-0.16 0.02-0.24C23.04 15.563 23.06 15.483 23.09 15.403z" fill="#ffffff" data-fill-palette-color="accent"></path><path d="M23.41 14.953c0.04-0.04 0.09-0.07 0.13-0.1-0.06 0.04-0.12 0.09-0.17 0.15-0.06 0.05-0.11 0.11-0.16 0.18 0.03-0.05 0.07-0.1 0.11-0.14 0.01-0.01 0.01-0.02 0.03-0.03 0-0.01 0-0.01 0.01-0.02 0.01-0.01 0.01-0.01 0.02-0.01l0.01-0.01C23.4 14.963 23.4 14.953 23.41 14.953z" fill="#ffffff" data-fill-palette-color="accent"></path><path d="M25.13 14.993v0.01c-0.01-0.02-0.03-0.03-0.05-0.05C25.1 14.963 25.12 14.973 25.13 14.993z" fill="#ffffff" data-fill-palette-color="accent"></path><path d="M34.992 68.991c-0.276 0-0.553-0.091-0.782-0.275-0.473-0.379-0.605-1.042-0.315-1.574L45.002 46.8h-8.025c-0.491 0-0.936-0.287-1.138-0.733-0.203-0.447-0.125-0.971 0.197-1.34l13.899-15.884c0.237-0.271 0.58-0.427 0.941-0.427h13.898c0.484 0 0.925 0.279 1.131 0.717s0.141 0.956-0.167 1.329l-8.237 9.973h7.273c0.521 0 0.987 0.322 1.17 0.81 0.184 0.488 0.045 1.038-0.347 1.38L35.815 68.682C35.58 68.888 35.286 68.991 34.992 68.991zM39.732 44.3h7.377c0.441 0 0.85 0.232 1.075 0.612 0.225 0.379 0.233 0.85 0.022 1.237l-8.751 16.026 21.992-19.241h-6.601c-0.484 0-0.924-0.28-1.131-0.718-0.206-0.438-0.141-0.955 0.167-1.329l8.237-9.972H51.443L39.732 44.3z" fill="#ffffff" data-fill-palette-color="accent"></path><path d="M50.324 50.686L50.324 50.686z" fill="#ffffff" data-fill-palette-color="accent"></path></g></svg></g></svg></g></svg></g><defs></defs></svg><rect width="395.52" height="208.74885349743505" fill="none" stroke="none" visibility="hidden"></rect></g></svg></g></svg>